<?xml version="1.0" encoding="UTF-8" standalone="no"?>
<!DOCTYPE svg PUBLIC "-//W3C//DTD SVG 1.1//EN" "http://www.w3.org/Graphics/SVG/1.1/DTD/svg11.dtd">
<svg version="1.1" xmlns="http://www.w3.org/2000/svg" xmlns:xlink="http://www.w3.org/1999/xlink" preserveAspectRatio="xMidYMid meet" viewBox="0 0 640 640" width="640" height="640"><defs><path d="M280.16 193.83L281.39 193.83L281.39 194.81L280.16 194.81L280.16 193.83Z" id="aPjRr6t7E"></path><path d="M137.22 185.9C137.22 186.45 137.22 186.9 137.22 186.9C137.22 186.9 137.22 186.45 137.22 185.9C137.22 185.35 137.22 184.9 137.22 184.9C137.22 185.1 137.22 185.35 137.22 185.9Z" id="h3IftSakM"></path><path d="M89 175.3C89 175.12 89 174.97 89 174.97C89 174.97 89 175.12 89 175.3C89 175.48 89 175.63 89 175.63C89 175.56 89 175.48 89 175.3Z" id="b4Ry04hsug"></path><linearGradient id="gradienta1aqjLgPfl" gradientUnits="userSpaceOnUse" x1="89" y1="175.63" x2="89" y2="174.97"><stop style="stop-color: #ffffff;stop-opacity: 1" offset="0%"></stop><stop style="stop-color: #010000;stop-opacity: 1" offset="100%"></stop></linearGradient><path d="M7.28 246.67L319.77 7.95L632.28 246.67L512.91 632.95L126.65 632.95L7.28 246.67Z" id="a8cX1ZjyH"></path></defs><g><g><g><use xlink:href="#aPjRr6t7E" opacity="1" fill="#0690f2" fill-opacity="1"></use></g><g><use xlink:href="#h3IftSakM" opacity="1" fill="#45b29e" fill-opacity="1"></use></g><g><use xlink:href="#b4Ry04hsug" opacity="1" fill="url(#gradienta1aqjLgPfl)"></use></g><g><use xlink:href="#a8cX1ZjyH" opacity="1" fill="#44bb9b" fill-opacity="0"></use><g><use xlink:href="#a8cX1ZjyH" opacity="1" fill-opacity="0" stroke="#000000" stroke-width="10" stroke-opacity="1"></use></g></g></g></g></svg>